HIERARCHY
ROOT joint_Root
{
	OFFSET 0.0 0.0 0.0
	CHANNELS 6 Xposition Yposition Zposition Zrotation Xrotation Yrotation 
	JOINT Hips
	{
		OFFSET 4.5925 91.4895 -427.239
		CHANNELS 6 Xposition Yposition Zposition Zrotation Xrotation Yrotation 
		JOINT Spine
		{
			OFFSET 15.7357 0.0 0.0
			CHANNELS 6 Xposition Yposition Zposition Zrotation Xrotation Yrotation 
			JOINT Chest
			{
				OFFSET 8.98455 -0.406207 0.0
				CHANNELS 6 Xposition Yposition Zposition Zrotation Xrotation Yrotation 
				JOINT Neck
				{
					OFFSET 16.3773 0.0 0.0
					CHANNELS 6 Xposition Yposition Zposition Zrotation Xrotation Yrotation 
					JOINT Head
					{
						OFFSET 6.45672 0.0 0.0
						CHANNELS 6 Xposition Yposition Zposition Zrotation Xrotation Yrotation 
						End Site
						{
							OFFSET 0.0 0.0 0.0
						}
					}
				}
				JOINT Shoulder_L
				{
					OFFSET 12.9942 -0.242716 4.98039
					CHANNELS 6 Xposition Yposition Zposition Zrotation Xrotation Yrotation 
					JOINT UpperArm_L
					{
						OFFSET 5.34809 0.0 0.0
						CHANNELS 6 Xposition Yposition Zposition Zrotation Xrotation Yrotation 
						JOINT LowerArm_L
						{
							OFFSET 24.3286 1.87007e-05 0.0
							CHANNELS 6 Xposition Yposition Zposition Zrotation Xrotation Yrotation 
							JOINT Hand_L
							{
								OFFSET 22.2916 0.0 0.0
								CHANNELS 6 Xposition Yposition Zposition Zrotation Xrotation Yrotation 
								End Site
								{
									OFFSET 0.0 0.0 0.0
								}
							}
						}
					}
				}
				JOINT Shoulder_R
				{
					OFFSET 12.9945 -0.242716 -4.98039
					CHANNELS 6 Xposition Yposition Zposition Zrotation Xrotation Yrotation 
					JOINT UpperArm_R
					{
						OFFSET -5.34813 0.0 0.0
						CHANNELS 6 Xposition Yposition Zposition Zrotation Xrotation Yrotation 
						JOINT LowerArm_R
						{
							OFFSET -24.3289 0.000322201 0.0
							CHANNELS 6 Xposition Yposition Zposition Zrotation Xrotation Yrotation 
							JOINT Hand_R
							{
								OFFSET -22.2915 -0.000108084 0.0
								CHANNELS 6 Xposition Yposition Zposition Zrotation Xrotation Yrotation 
								End Site
								{
									OFFSET 0.0 0.0 0.0
								}
							}
						}
					}
				}
			}
		}
		JOINT UpperLeg_L
		{
			OFFSET -2.19248 -6.46944 0.0
			CHANNELS 6 Xposition Yposition Zposition Zrotation Xrotation Yrotation 
			JOINT LowerLeg_L
			{
				OFFSET 39.0811 0.0 -1.23785e-05
				CHANNELS 6 Xposition Yposition Zposition Zrotation Xrotation Yrotation 
				JOINT Foot_L
				{
					OFFSET 40.9854 0.0 -1.26872e-05
					CHANNELS 6 Xposition Yposition Zposition Zrotation Xrotation Yrotation 
					JOINT Toes_L
					{
						OFFSET 11.7543 0.0 0.0
						CHANNELS 6 Xposition Yposition Zposition Zrotation Xrotation Yrotation 
						End Site
						{
							OFFSET 0.0 0.0 0.0
						}
					}
				}
			}
		}
		JOINT UpperLeg_R
		{
			OFFSET -2.19251 6.46944 0.0
			CHANNELS 6 Xposition Yposition Zposition Zrotation Xrotation Yrotation 
			JOINT LowerLeg_R
			{
				OFFSET -39.0811 -0.00228153 -0.0401928
				CHANNELS 6 Xposition Yposition Zposition Zrotation Xrotation Yrotation 
				JOINT Foot_R
				{
					OFFSET -40.9854 0.0 0.0
					CHANNELS 6 Xposition Yposition Zposition Zrotation Xrotation Yrotation 
					JOINT Toes_R
					{
						OFFSET -11.7543 0.0 0.0
						CHANNELS 6 Xposition Yposition Zposition Zrotation Xrotation Yrotation 
						End Site
						{
							OFFSET 0.0 0.0 0.0
						}
					}
				}
			}
		}
	}
}
MOTION
Frames:	4
Frame Time:	0.0333333
0.000000 0.000000 0.000000 0.000000 0.000000 -0.000000 -0.519686 90.855200 -1.773590 90.189600 -2.815840 12.113700 15.735700 0.000005 -0.000001 85.974100 81.508400 -85.811000 8.984550 -0.406207 -0.000000 9.178390 -1.183880 0.420881 16.377300 -0.000001 -0.000001 7.314810 -4.210340 1.734070 6.456720 -0.000001 -0.000000 -2.564370 -4.667850 1.267070 12.994200 -0.242716 4.980390 -91.824000 6.617570 -74.552900 5.348090 -0.000007 -0.000001 -60.960500 37.384300 -17.805000 24.328600 0.000019 0.000005 8.015540 21.078100 -21.382700 22.291600 -0.000001 0.000005 9.334830 5.252690 1.361570 12.994500 -0.242716 -4.980390 88.427700 11.689000 -82.284200 -5.348130 -0.000001 -0.000004 -61.269800 35.332300 -11.410700 -24.328900 0.000322 -0.000009 0.971546 2.910160 -18.489200 -22.291500 -0.000108 -0.000004 13.649000 5.388300 -2.561060 -2.192480 -6.469440 -0.000000 -175.310000 -12.915000 0.888132 39.081100 -0.000007 -0.000012 -0.153667 0.258333 30.746100 40.985400 -0.000006 -0.000013 0.620153 5.016010 -69.299900 11.754300 -0.000000 0.000003 -0.000130 -0.001285 -16.626600 -2.192510 6.469440 -0.000001 173.556000 18.968600 -178.507000 -39.081100 -0.002282 -0.040193 -0.174664 0.297289 30.905900 -40.985400 0.000008 0.000006 3.653130 13.158100 -70.069300 -11.754300 -0.000006 -0.000006 -0.002897 -0.039436 -18.176900
0.000000 0.000000 0.000000 0.000000 0.000000 -0.000000 -0.594723 90.851100 -1.850210 90.193000 -2.835290 12.182100 15.735700 0.000005 -0.000001 86.109700 81.442100 -85.948600 8.984550 -0.406207 -0.000000 9.313460 -1.152600 0.415916 16.377300 -0.000001 -0.000001 7.676310 -4.382330 1.819490 6.456720 -0.000001 -0.000000 -1.624290 -4.859130 1.306400 12.994200 -0.242716 4.980390 -91.889900 6.824070 -74.480000 5.348090 -0.000007 -0.000001 -60.551000 35.395900 -17.854800 24.328600 0.000019 0.000005 8.627230 21.334000 -22.638100 22.291600 -0.000001 0.000005 8.445960 5.255450 1.288920 12.994500 -0.242716 -4.980390 88.412300 11.697500 -82.215300 -5.348130 -0.000001 -0.000004 -61.353700 35.295400 -11.549800 -24.328900 0.000322 -0.000009 0.921101 2.735770 -18.635700 -22.291500 -0.000108 -0.000004 13.724800 5.389170 -2.588750 -2.192480 -6.469440 -0.000000 -175.254000 -12.911000 0.886616 39.081100 -0.000007 -0.000012 -0.153899 0.258352 30.782300 40.985400 -0.000006 -0.000013 0.576951 5.032060 -69.254900 11.754300 -0.000000 0.000003 -0.000127 -0.001261 -16.625700 -2.192510 6.469440 -0.000001 173.611000 18.945300 -178.518000 -39.081100 -0.002282 -0.040193 -0.174949 0.297158 30.957400 -40.985400 0.000008 0.000006 3.712880 13.119000 -70.061500 -11.754300 -0.000006 -0.000006 -0.002967 -0.040233 -18.209300
0.000000 0.000000 0.000000 0.000000 0.000000 -0.000000 -0.673010 90.856700 -1.910950 90.223000 -2.782950 12.251300 15.735700 0.000005 -0.000001 86.317600 81.399600 -86.168100 8.984550 -0.406207 -0.000000 9.402010 -1.096360 0.388826 16.377300 -0.000001 -0.000001 8.140950 -4.586950 1.878300 6.456720 -0.000001 -0.000000 -0.697344 -5.156690 1.467580 12.994200 -0.242716 4.980390 -91.913400 6.884180 -74.426500 5.348090 -0.000007 -0.000001 -59.946200 33.298700 -18.207300 24.328600 0.000019 0.000005 9.115930 21.074900 -24.047900 22.291600 -0.000001 0.000005 7.484660 5.253930 1.328690 12.994500 -0.242716 -4.980390 88.403000 11.646400 -82.136700 -5.348130 -0.000001 -0.000004 -61.504800 35.493900 -11.553300 -24.328900 0.000322 -0.000009 0.912048 2.682740 -18.804400 -22.291500 -0.000108 -0.000004 13.752300 5.388180 -2.557450 -2.192480 -6.469440 -0.000000 -175.214000 -12.895400 0.924819 39.081100 -0.000007 -0.000012 -0.156463 0.263041 30.745500 40.985400 -0.000006 -0.000013 0.531005 5.082510 -69.176300 11.754300 -0.000000 0.000003 -0.000140 -0.001373 -16.629800 -2.192510 6.469440 -0.000001 173.643000 18.929200 -178.492000 -39.081100 -0.002282 -0.040193 -0.172797 0.293476 30.965500 -40.985400 0.000008 0.000006 3.758720 13.031900 -70.044100 -11.754300 -0.000006 -0.000006 -0.002887 -0.039317 -18.172000
0.000000 0.000000 0.000000 0.000000 0.000000 -0.000000 -0.764579 90.852200 -2.009770 90.239000 -2.609880 12.281700 15.735700 0.000005 -0.000001 86.319300 81.378900 -86.173400 8.984550 -0.406207 -0.000000 9.443300 -1.098440 0.382241 16.377300 -0.000001 -0.000001 8.615160 -4.791360 1.877280 6.456720 -0.000001 -0.000000 0.287926 -5.487580 1.690610 12.994200 -0.242716 4.980390 -91.928200 6.896660 -74.338500 5.348090 -0.000007 -0.000001 -58.695400 31.759200 -19.096500 24.328600 0.000019 0.000005 9.600990 20.728600 -25.543700 22.291600 -0.000001 0.000005 7.228510 5.254890 1.303000 12.994500 -0.242716 -4.980390 88.400200 11.623700 -82.108100 -5.348130 -0.000001 -0.000004 -61.573000 35.778300 -11.539000 -24.328900 0.000322 -0.000009 0.885560 2.589950 -18.904900 -22.291500 -0.000108 -0.000004 13.730900 5.388500 -2.567340 -2.192480 -6.469440 -0.000000 -175.225000 -12.700700 0.827557 39.081100 -0.000007 -0.000012 -0.156011 0.261797 30.792000 40.985400 -0.000006 -0.000013 0.480454 5.086470 -69.101300 11.754300 -0.000000 0.000003 -0.000129 -0.001282 -16.626500 -2.192510 6.469440 -0.000001 173.694000 19.023500 -178.540000 -39.081100 -0.002282 -0.040193 -0.170923 0.289623 31.029100 -40.985400 0.000008 0.000006 3.809150 12.896700 -70.038800 -11.754300 -0.000006 -0.000006 -0.002935 -0.039865 -18.194300
